<?xml version="1.0" encoding="utf-8"?>
<!-- Generator: Adobe Illustrator 21.1.0, SVG Export Plug-In . SVG Version: 6.00 Build 0)  -->
<svg version="1.1" xmlns="http://www.w3.org/2000/svg" xmlns:xlink="http://www.w3.org/1999/xlink" x="0px" y="0px"
	 viewBox="0 0 250 250" style="enable-background:new 0 0 250 250;" xml:space="preserve">
<style type="text/css">
	.st0{fill:#51DDE9;}
	.st1{fill:#FFFFFF;}
</style>
<g id="Layer_2">
	<rect class="st0" width="250" height="250"/>
</g>
<g id="Layer_3">
	<g>
		<path class="st1" d="M125,15.9c28.9,0,56.1,11.3,76.5,31.7c20.4,20.4,31.7,47.6,31.7,76.5s-11.3,56.1-31.7,76.5
			c-20.4,20.4-47.6,31.7-76.5,31.7s-56.1-11.3-76.5-31.7c-20.4-20.4-31.7-47.6-31.7-76.5S28,68.1,48.5,47.7
			C68.9,27.2,96.1,15.9,125,15.9 M125,0C56.4,0,0.8,55.6,0.8,124.2S56.4,248.4,125,248.4c68.6,0,124.2-55.6,124.2-124.2
			S193.6,0,125,0L125,0z"/>
	</g>
</g>
<g id="Layer_4">
	<g>
		<rect x="110.7" y="128.5" class="st1" width="27.9" height="89.9"/>
	</g>
	<rect x="63" y="108.1" class="st1" width="47.7" height="20.4"/>
	<rect x="138.6" y="108.1" class="st1" width="48.1" height="20.4"/>
	<rect x="110.6" y="80.3" class="st1" width="28.2" height="27.8"/>
	<rect x="55" y="59.2" class="st1" width="55.6" height="21"/>
	<rect x="138.8" y="59.2" class="st1" width="56" height="21"/>
</g>
</svg>
